<svg xmlns="http://www.w3.org/2000/svg" viewBox="0 0 120 120" role="img" aria-label="Llama-dita">
  <defs>
    <mask id="cara">
      <rect width="120" height="120" fill="#fff"/>
      <ellipse cx="50" cy="50" rx="3.2" ry="3.9" fill="#000"/>
      <path d="M26.5 73.5 Q33 79 40.5 75.5" stroke="#000" stroke-width="2.6" fill="none" stroke-linecap="round"/>
      <path d="M22.5 62 q2.4 -2.2 4.8 0" stroke="#000" stroke-width="2.2" fill="none" stroke-linecap="round"/>
      <path d="M44 72 C46 86 45 100 42 114" stroke="#000" stroke-width="2.2" fill="none" stroke-linecap="round" opacity="0"/>
    </mask>
  </defs>
  <g fill="#1C2B5A" mask="url(#cara)">
    <path d="M42 40 C38 26 37 14 40 6 C47 12 52 24 53 36 Z"/>
    <path d="M62 35 C64 22 70 11 78 6 C80 16 77 30 72 40 Z"/>
    <ellipse cx="58" cy="50" rx="20" ry="17"/>
    <path d="M40 40 C42 30 50 27 55 32 C58 26 67 27 70 34 C64 33 60 36 58 40 C54 35 46 36 40 40 Z"/>
    <path d="M44 44 C34 44 22 52 20 64 C19 76 28 82 40 80 C50 78 56 70 56 60 Z"/>
    <path d="M48 70 C47 88 44 104 40 118 L86 118 C80 102 76 84 76 60 C70 66 58 70 48 70 Z"/>
  </g>
  <path d="M39 33 C44 12 72 8 81 37" stroke="#1C2B5A" stroke-width="4.6" fill="none" stroke-linecap="round"/>
  <rect x="73.5" y="37" width="14" height="25" rx="7" fill="#1C2B5A"/>
</svg>
